<?xml version="1.0" standalone="no"?>
<!DOCTYPE svg PUBLIC "-//W3C//DTD SVG 20010904//EN"
 "http://www.w3.org/TR/2001/REC-SVG-20010904/DTD/svg10.dtd">
<svg version="1.0" xmlns="http://www.w3.org/2000/svg"
 width="190.000000pt" height="191.000000pt" viewBox="0 0 190.000000 191.000000"
 preserveAspectRatio="xMidYMid meet">
<metadata>
Created by potrace 1.10, written by Peter Selinger 2001-2011
</metadata>
<g transform="translate(0.000000,191.000000) scale(0.100000,-0.100000)"
fill="#bf5959" stroke="none">
<path d="M5 955 l0 -940 945 0 945 0 0 940 0 940 -945 0 -945 0 0 -940z m1845
560 l0 -335 -317 228 c-175 126 -376 270 -448 322 -71 51 -135 97 -141 102
-11 8 -317 -216 -757 -554 -70 -54 -129 -98 -132 -98 -3 0 -5 151 -5 335 l0
335 900 0 900 0 0 -335z m-468 -59 l445 -319 -159 -525 c-87 -289 -159 -527
-161 -528 -1 -1 -248 -4 -549 -7 -404 -3 -548 -2 -548 7 0 6 -79 242 -175 525
-96 283 -174 515 -173 516 30 19 829 623 843 636 11 11 22 18 26 17 3 -2 206
-146 451 -322z m-1332 -322 c-9 -15 -7 -33 14 -89 25 -69 28 -96 6 -55 -9 17
-14 19 -26 9 -12 -10 -14 3 -14 87 0 90 1 97 16 82 13 -12 13 -19 4 -34z
m1802 -521 l-4 -553 -148 0 -147 0 129 427 c163 540 172 574 151 548 -15 -19
-15 -18 -8 15 5 19 8 51 9 70 1 19 5 38 11 42 5 4 10 6 10 5 0 -1 -1 -251 -3
-554z m-1487 -535 c7 -17 -4 -18 -154 -18 l-161 0 0 472 0 471 154 -454 c85
-250 157 -462 161 -471z m1169 -13 c5 -13 -12 -15 -117 -13 l-122 2 105 3 c58
2 109 8 114 13 13 13 13 13 20 -5z m-1129 -5 c3 -5 -1 -10 -10 -10 -9 0 -13 5
-10 10 3 6 8 10 10 10 2 0 7 -4 10 -10z"/>
<path d="M325 1253 c-95 -50 -140 -148 -111 -246 21 -71 73 -129 149 -167 78
-38 125 -46 181 -30 135 37 197 193 127 316 -31 53 -69 88 -138 123 -52 26
-162 29 -208 4z m191 -27 c137 -64 197 -182 144 -285 -38 -75 -121 -119 -202
-108 -84 11 -185 83 -214 153 -29 69 -9 169 43 216 56 51 149 61 229 24z"/>
<path d="M416 1169 c-46 -39 -96 -140 -96 -191 0 -51 43 -98 90 -98 63 0 108
41 156 143 33 71 31 111 -5 148 -42 41 -97 41 -145 -2z m122 -15 c44 -30 17
-135 -54 -211 -36 -38 -85 -45 -116 -16 -29 26 -24 99 11 154 52 83 108 109
159 73z"/>
<path d="M769 1030 c-35 -18 -69 -70 -69 -104 0 -27 28 -86 72 -153 43 -67 45
-100 6 -88 -13 4 -34 18 -48 31 -21 20 -25 34 -26 81 -1 59 -16 82 -46 70 -9
-3 -32 -35 -53 -72 -35 -64 -36 -67 -19 -86 9 -10 27 -19 39 -19 11 0 36 -16
55 -35 68 -71 174 -84 230 -30 66 63 63 116 -10 226 -55 81 -60 99 -30 99 34
0 60 -35 60 -81 0 -46 14 -79 35 -79 17 0 59 54 79 102 16 37 8 58 -22 58 -8
0 -32 16 -54 36 -72 65 -134 79 -199 44z m136 -30 c23 -11 51 -33 63 -50 18
-24 28 -29 48 -24 l25 6 -33 -61 c-18 -33 -37 -59 -43 -58 -5 2 -8 22 -7 44 4
55 -21 101 -64 119 -42 18 -74 5 -74 -29 0 -13 23 -55 51 -95 73 -104 79 -174
16 -212 -62 -38 -139 -19 -208 50 -32 32 -45 39 -64 34 -24 -6 -24 -5 13 60
36 64 71 91 56 44 -20 -64 10 -132 69 -161 35 -18 39 -18 62 -3 14 9 25 24 25
34 0 10 -25 55 -55 101 -42 63 -55 92 -55 120 0 88 82 126 175 81z"/>
<path d="M1072 898 c-16 -16 -15 -28 4 -49 15 -17 12 -26 -53 -136 -59 -102
-72 -118 -94 -118 -14 0 -33 -6 -42 -14 -25 -20 -6 -45 69 -87 63 -35 66 -36
85 -18 17 16 18 19 4 40 -21 33 -19 42 21 104 l35 55 -6 -127 c-6 -120 -5
-127 14 -137 17 -9 36 -1 120 54 55 36 103 65 106 65 2 0 -12 -28 -33 -62 -32
-52 -43 -62 -66 -63 -17 0 -33 -8 -40 -18 -14 -23 5 -39 120 -102 73 -40 87
-45 102 -34 9 8 19 15 21 16 3 2 -5 13 -17 26 l-21 23 71 123 c64 111 73 122
95 118 28 -5 55 17 47 38 -6 15 -153 105 -171 105 -6 0 -47 -25 -91 -55 -45
-30 -84 -55 -88 -55 -4 0 -4 47 -2 104 7 121 8 118 -99 180 -68 40 -74 41 -91
24z m89 -53 c39 -24 75 -46 79 -47 3 -2 1 -61 -6 -133 -6 -71 -11 -131 -9
-133 1 -1 51 31 111 72 l109 74 75 -44 c70 -41 95 -64 71 -64 -5 0 -13 5 -16
10 -3 6 -14 10 -25 10 -13 0 -41 -40 -99 -137 l-81 -138 26 -23 c15 -13 24
-26 21 -29 -8 -7 -207 109 -207 121 0 4 8 5 18 1 9 -4 24 -8 31 -9 16 -1 18 2
115 159 l61 100 -155 -103 c-85 -56 -159 -102 -163 -102 -5 0 -7 15 -4 33 3
17 9 86 12 152 4 66 11 138 15 160 9 46 12 50 -75 -104 -36 -62 -65 -122 -65
-132 0 -10 10 -24 22 -30 13 -7 18 -14 11 -16 -16 -6 -143 68 -137 79 3 4 14
3 25 -3 11 -6 27 -8 34 -5 14 5 154 236 162 267 3 11 -3 22 -16 28 -18 10 -30
31 -17 31 2 0 37 -20 77 -45z"/>
</g>
</svg>
